<?xml version="1.0" encoding="UTF-8"?>
<svg xmlns="http://www.w3.org/2000/svg" width="24" height="24" viewBox="0 0 24 24">
  <linearGradient id="a" x1="12.001" x2="12.001" y1="1.5" y2="22.5" gradientUnits="userSpaceOnUse">
    <stop offset="0" stop-color="#02ADFC"/>
    <stop offset="1" stop-color="#1D20FD"/>
  </linearGradient>
  <path fill="url(#a)" d="M17.676 8.763l-3.028 3.028 3.028 3.028a1.417 1.417 0 01-2.005 2.005l-3.028-3.028-3.028 3.028a1.417 1.417 0 01-2.005-2.005l3.028-3.028-3.028-3.028a1.417 1.417 0 012.005-2.005l3.028 3.028 3.028-3.028a1.417 1.417 0 012.005 2.005zM22.5 12c0 5.799-4.701 10.5-10.5 10.5S1.5 17.799 1.5 12 6.201 1.5 12 1.5 22.5 6.201 22.5 12z"/>
</svg>
