<?xml version="1.0" encoding="UTF-8"?>
<svg xmlns="http://www.w3.org/2000/svg" width="24" height="24" viewBox="0 0 24 24">
  <path fill="#10A37F" d="M22.2819 9.8211a5.9847 5.9847 0 00-.5157-4.9108 6.0462 6.0462 0 00-6.5098-2.9A6.0651 6.0651 0 009.4 2.9156a5.9847 5.9847 0 00-3.9977 2.9 6.0462 6.0462 0 00.7427 7.0966 5.98 5.98 0 00.511 4.9107 6.051 6.051 0 006.5146 2.9001A5.9847 5.9847 0 0018.85 21.086a6.051 6.051 0 003.9931-2.9001 5.9894 5.9894 0 00-.7475-7.0955l.0063-.0021zm-9.832 11.1765a4.4758 4.4758 0 01-2.7546-1.2911 3.5164 3.5164 0 001.0293-.2122l2.4554-1.0127a.7112.7112 0 00.4348-.6535v-5.4259l1.0916.6252a.0654.0654 0 01.0347.0569v4.4817a4.4984 4.4984 0 01-2.2912 3.4316zm-6.6808-3.5526a4.4814 4.4814 0 01-.6578-1.9727 3.5615 3.5615 0 00.9196.5557l2.4506 1.0137a.7141.7141 0 00.7342-.1596l4.1353-3.5526a.0653.0653 0 01.0653 0l3.2094 1.8526a.0756.0756 0 010 .1294l-4.0991 3.5202a4.5067 4.5067 0 01-6.7575-1.3867zM4.8583 6.4247a4.4955 4.4955 0 012.7408-1.2842 3.5164 3.5164 0 00-.005 1.0368L7.6562 8.703a.7133.7133 0 00.4348.6535l4.1353 1.7023a.0653.0653 0 01.0347.0569l.0063 3.7039a.0756.0756 0 01-.116.0632l-4.0834-2.3586a4.5067 4.5067 0 01-3.2856-6.0995zm15.6591 5.2311a4.4772 4.4772 0 01-.1537 2.0726 3.5164 3.5164 0 00-.8986-.5746l-2.4506-1.0137a.7063.7063 0 00-.7342.1596L12.1613 15.843a.0653.0653 0 01-.0653 0l-3.2094-1.8526a.0756.0756 0 010-.1285l4.0991-3.5212a4.5067 4.5067 0 016.7217 1.3152zm1.0431-2.6502a5.7509 5.7509 0 00-1.3208-.587l-.2822-.0949a3.5108 3.5108 0 00.2453-.98l.0442-.3545a5.0866 5.0866 0 00-.7854-3.3759A5.7074 5.7074 0 0018.53 1.3838a5.8003 5.8003 0 00-3.3759.7475L15 2.2176a3.5143 3.5143 0 00-.9978-.2548l-.3408-.0442A5.0793 5.0793 0 0010.132 2.72a5.7467 5.7467 0 00-2.4822 1.8853 5.8003 5.8003 0 00-.801 3.3759l.0442.3071a3.5143 3.5143 0 00-.2548.9978l-.0442.3408a5.0793 5.0793 0 00.7001 3.3759 5.7467 5.7467 0 001.8705 2.4822 5.8077 5.8077 0 003.3759.801l.3408-.0442a3.5143 3.5143 0 00.9978.2548l.3408.0442a5.0793 5.0793 0 003.3759-.7001 5.7467 5.7467 0 002.4822-1.8705 5.8077 5.8077 0 00.801-3.3759l-.0442-.3408a3.5174 3.5174 0 00.2548-.9978l.0442-.3408z"/>
</svg>
