<?xml version="1.0" encoding="UTF-8"?>
<svg xmlns="http://www.w3.org/2000/svg" width="24" height="24" viewBox="0 0 24 24">
  <path fill="#FF4500" d="M12 0A12 12 0 000 12a12 12 0 0012 12 12 12 0 0012-12A12 12 0 0012 0zm5.01 4.744c.688 0 1.25.561 1.25 1.249a1.25 1.25 0 01-2.498.056l-2.597-.547-.8 3.747c1.824.07 3.48.632 4.674 1.488.308-.309.73-.491 1.207-.491.957 0 1.739.81 1.739 1.8 0 .722-.427 1.344-1.033 1.617.008.143.012.288.012.435 0 3.187-3.913 5.775-8.736 5.775-4.825 0-8.736-2.588-8.736-5.775 0-.142.004-.283.01-.422A1.779 1.779 0 013.5 12.06c0-.989.781-1.8 1.738-1.8.442 0 .846.164 1.16.44 1.21-.883 2.9-1.449 4.749-1.513l.904-4.242a.367.367 0 01.144-.172.37.37 0 01.21-.04l2.91.617a1.214 1.214 0 11.688-1.147zm-10.074 7.83a.75.75 0 00-.752.75c0 .414.338.75.752.75a.75.75 0 00.752-.75.75.75 0 00-.752-.75zm8.125 0a.75.75 0 00-.752.75c0 .414.337.75.752.75a.75.75 0 00.752-.75.75.75 0 00-.752-.75zm-3.999 1.5a.75.75 0 01.75.75v3.75a.75.75 0 01-1.5 0v-3.75a.75.75 0 01.75-.75zm-1.25.75a.75.75 0 00-1.5 0V16.5a.75.75 0 001.5 0v-1.676z"/>
</svg>
