<?xml version="1.0" encoding="UTF-8"?>
<svg xmlns="http://www.w3.org/2000/svg" width="24" height="24" viewBox="0 0 24 24">
  <path fill="#000000" d="M12 2C6.48 2 2 6.48 2 12s4.48 10 10 10 10-4.48 10-10S17.52 2 12 2zm5.5 13.5c-.5.36-1.1.65-1.75.85-.65.2-1.35.33-2.07.36-.71.03-1.42-.03-2.08-.22-.66-.18-1.29-.47-1.84-.86-.34-.24-.63-.54-.86-.87-.23-.34-.4-.7-.5-1.09-.1-.39-.12-.8-.06-1.2.05-.4.17-.78.36-1.13.19-.35.43-.66.73-.93.31-.26.65-.48 1.02-.65.38-.17.78-.3 1.18-.37.41-.07.83-.09 1.24-.05.42.04.83.13 1.22.27.38.14.75.33 1.08.56.33.24.63.51.88.83.26.32.47.67.63 1.05.15.38.27.78.32 1.18.05.4.04.82-.03 1.21-.07.4-.2.78-.38 1.14-.19.36-.43.69-.75.97z"/>
  <circle fill="#000000" cx="14.5" cy="13.5" r="1.5"/>
  <circle fill="#000000" cx="9.5" cy="13.5" r="1.5"/>
  <path fill="#000000" d="M14.5 8.5h-5c-.55 0-1 .45-1 1s.45 1 1 1h5c.55 0 1-.45 1-1s-.45-1-1-1z"/>
</svg>
