<?xml version="1.0" encoding="UTF-8"?>
<svg xmlns="http://www.w3.org/2000/svg" width="24" height="24" viewBox="0 0 24 24">
  <path fill="#0088CC" d="M12 2C6.48 2 2 6.48 2 12s4.48 10 10 10 10-4.48 10-10S17.52 2 12 2zm4.64 13.21c-.24.12-1.39.71-1.97.84-.14.03-.25.05-.35.05-.23 0-.37-.1-.48-.19-.12-.1-.23-.19-.45-.19-.15 0-.31.05-.45.14-.24.13-.47.28-.72.38-.13.04-.26.07-.37.07-.07 0-.21-.02-.24-.21-.01-.04-.01-.08-.02-.12-.05-.4-.09-.66-.19-.66-1.6-.25-2.47-1.3-2.5-1.34-.02-.02-.02-.04-.02-.06 0-.04.03-.07.07-.07l.56-.27c.03-.01.05-.04.05-.06 0-1.28 1.05-2.33 2.33-2.33s2.33 1.05 2.33 2.33c0 .03.01.05.04.06l.56.27c.03 0 .07.03.07.07v.01c.01.02 0 .04-.02.06-.03.04-.9 1.09-2.5 1.34-.1 0-.14.26-.19.66-.01.05-.01.08-.02.12-.02.11-.09.21-.24.21-.11 0-.24-.02-.37-.07-.25-.1-.48-.25-.72-.38-.14-.09-.3-.14-.45-.14-.22 0-.33.09-.45.19-.11.09-.25.19-.48.19-.1 0-.21-.02-.35-.05-.58-.14-1.73-.72-1.97-.84-.03-.02-.05-.04-.05-.07s.02-.06.05-.07c.4-.17.67-.39.8-.64.14-.27.15-.58.02-.92-.2-.53-.76-.91-1.4-.91h-.01c-.64 0-1.2.38-1.4.91-.13.34-.12.65.02.92.13.25.4.47.8.64.03.01.05.04.05.07s-.02.05-.05.07z"/>
</svg>
