<?xml version="1.0" encoding="UTF-8"?>
<svg xmlns="http://www.w3.org/2000/svg" width="24" height="24" viewBox="0 0 24 24">
  <path fill="#25D366" d="M12 2C6.48 2 2 6.48 2 12s4.48 10 10 10 10-4.48 10-10S17.52 2 12 2zm4.93 14.24c-.19.59-.78.98-1.41.98-.18 0-.36-.03-.53-.1l-2.9-1.45c-.3.18-.62.33-.97.42v1.16c0 .41-.34.75-.75.75s-.75-.34-.75-.75v-1.16c-1.21-.31-2.13-1.23-2.44-2.44h-1.43c-.41 0-.75-.34-.75-.75s.34-.75.75-.75h1.43c.09-.35.24-.67.42-.97l-1.45-2.9c-.16-.32-.2-.7-.1-1.06.1-.35.33-.64.65-.8.16-.08.33-.12.51-.12.52 0 .98.29 1.21.76l1.01 2.03c.23-.05.46-.08.7-.08.24 0 .47.03.7.08l1.01-2.03c.23-.47.69-.76 1.21-.76.18 0 .35.04.51.12.32.16.55.45.65.8.1.36.06.74-.1 1.06l-1.45 2.9c.18.3.33.62.42.97h1.43c.41 0 .75.34.75.75s-.34.75-.75.75h-1.43c-.1.39-.23.75-.42 1.06l1.45 2.9c.16.32.2.7.1 1.06z"/>
  <circle fill="#25D366" cx="12" cy="12" r="1.5"/>
</svg>
